<?xml version="1.0" encoding="UTF-8" standalone="no"?><!DOCTYPE svg PUBLIC "-//W3C//DTD SVG 1.1//EN" "http://www.w3.org/Graphics/SVG/1.1/DTD/svg11.dtd"><svg width="100%" height="100%" viewBox="0 0 494 86" version="1.1" xmlns="http://www.w3.org/2000/svg" xmlns:xlink="http://www.w3.org/1999/xlink" xml:space="preserve" xmlns:serif="http://www.serif.com/" style="fill-rule:evenodd;clip-rule:evenodd;stroke-linejoin:round;stroke-miterlimit:2;"><rect x="381.487" y="66.952" width="9.587" height="9.394" style="fill:#667eea;fill-rule:nonzero;"/><path d="M399.311,74.658l9.303,0l0,-29.063c2.059,-0.808 4.474,-1.909 6.817,-1.909c3.906,0 5.184,1.542 5.184,4.991l0,25.981l9.374,0l0,-27.522c0,-0.514 0,-0.954 -0.071,-1.468c2.415,-1.028 4.616,-1.982 6.889,-1.982c3.834,0 5.184,1.542 5.184,4.991l0,25.981l9.303,0l0,-28.403c0,-7.413 -3.764,-10.348 -10.155,-10.348c-4.261,0 -8.38,1.614 -12.073,4.256l-0.355,0c-1.775,-2.935 -4.758,-4.256 -8.877,-4.256c-4.403,0 -8.166,1.835 -11.22,4.256l-0.355,0l0,-3.522l-8.948,0l0,38.017Z" style="fill:#667eea;fill-rule:nonzero;"/><path d="M475.865,75.319c6.391,0 10.723,-1.762 13.279,-3.523l0,-6.312c-3.124,1.395 -6.604,2.495 -11.149,2.495c-6.675,0 -10.51,-2.421 -11.149,-9.761l23.577,0l0,-3.523c0,-12.183 -4.687,-18.715 -15.837,-18.715c-9.942,0 -17.256,6.605 -17.256,19.156l0,0.954c0,12.183 6.178,19.229 18.535,19.229Zm-1.492,-32.513c4.545,0 6.889,2.495 6.889,9.174l-14.416,0c0.497,-7.193 4.19,-9.174 7.527,-9.174Z" style="fill:#667eea;fill-rule:nonzero;"/><path d="M160.821,75.103c4.611,0 7.732,-1.54 9.364,-3.739l0.425,0l0.71,3.079l7.589,0l0,-27.198c0,-8.211 -5.036,-11.437 -13.69,-11.437c-5.107,0 -9.221,0.734 -12.839,2.053l0,6.745c2.412,-0.733 5.675,-1.173 9.293,-1.173c6.029,0 8.015,1.099 8.015,5.791l0,2.566l-8.086,1.026c-7.448,1.1 -12.272,4.326 -12.272,11.51c0,7.331 4.753,10.777 11.491,10.777Zm2.909,-6.525c-3.051,0 -5.249,-1.466 -5.249,-4.985c0,-3.519 1.702,-4.839 5.178,-5.205l6.029,-0.66l0,8.797c-1.135,1.173 -3.618,2.053 -5.958,2.053Z" style="fill:#2d3748;fill-rule:nonzero;"/><rect x="187.209" y="20.853" width="9.363" height="53.589" style="fill:#2d3748;fill-rule:nonzero;"/><path d="M214.376,75.103c4.611,0 7.732,-1.54 9.364,-3.739l0.425,0l0.709,3.079l7.59,0l0,-27.198c0,-8.211 -5.036,-11.437 -13.69,-11.437c-5.107,0 -9.221,0.734 -12.839,2.053l0,6.745c2.412,-0.733 5.675,-1.173 9.292,-1.173c6.03,0 8.016,1.099 8.016,5.791l0,2.566l-8.086,1.026c-7.448,1.1 -12.272,4.326 -12.272,11.51c0,7.331 4.753,10.777 11.491,10.777Zm2.909,-6.525c-3.051,0 -5.25,-1.466 -5.25,-4.985c0,-3.519 1.703,-4.839 5.179,-5.205l6.029,-0.66l0,8.797c-1.135,1.173 -3.618,2.053 -5.958,2.053Z" style="fill:#2d3748;fill-rule:nonzero;"/><path d="M240.48,74.443l9.363,0l0,-53.59l-9.363,0l0,53.59Zm22.131,0l10.073,0c-5.249,-8.138 -7.874,-12.17 -13.052,-20.307l12.201,-17.594l-9.506,0c-4.965,7.257 -7.519,10.849 -12.342,18.254c4.894,7.917 7.448,11.729 12.626,19.647Z" style="fill:#2d3748;fill-rule:nonzero;"/><path d="M286.303,75.103c4.611,0 7.732,-1.54 9.363,-3.739l0.426,0l0.709,3.079l7.59,0l0,-27.198c0,-8.211 -5.036,-11.437 -13.69,-11.437c-5.107,0 -9.221,0.734 -12.839,2.053l0,6.745c2.412,-0.733 5.675,-1.173 9.292,-1.173c6.03,0 8.016,1.099 8.016,5.791l0,2.566l-8.087,1.026c-7.448,1.1 -12.271,4.326 -12.271,11.51c0,7.331 4.752,10.777 11.491,10.777Zm2.908,-6.525c-3.05,0 -5.249,-1.466 -5.249,-4.985c0,-3.519 1.703,-4.839 5.178,-5.205l6.03,-0.66l0,8.797c-1.135,1.173 -3.618,2.053 -5.959,2.053Z" style="fill:#2d3748;fill-rule:nonzero;"/><path d="M310.704,74.443l28.657,0l0,-7.185l-17.662,0l0,-0.293l17.946,-23.972l0,-6.525l-28.161,0l0,7.111l16.812,0l0,0.22l-17.592,23.753l0,6.891Z" style="fill:#2d3748;fill-rule:nonzero;"/><path d="M355.605,75.103c4.611,0 7.732,-1.54 9.363,-3.739l0.426,0l0.709,3.079l7.59,0l0,-27.198c0,-8.211 -5.036,-11.437 -13.69,-11.437c-5.107,0 -9.221,0.734 -12.839,2.053l0,6.745c2.412,-0.733 5.675,-1.173 9.292,-1.173c6.03,0 8.016,1.099 8.016,5.791l0,2.566l-8.086,1.026c-7.449,1.1 -12.272,4.326 -12.272,11.51c0,7.331 4.753,10.777 11.491,10.777Zm2.909,-6.525c-3.051,0 -5.25,-1.466 -5.25,-4.985c0,-3.519 1.703,-4.839 5.179,-5.205l6.029,-0.66l0,8.797c-1.135,1.173 -3.618,2.053 -5.958,2.053Z" style="fill:#2d3748;fill-rule:nonzero;"/><path d="M117.096,33.611l-20.528,-11.851l0,55.053l24,0l0,5.334l-117.333,0l0,-5.334l10.666,0l0,-33.92l-9.941,2.488l-1.293,-5.173l56.24,-14.061l8.325,0c-0.918,2.179 -1.529,4.476 -1.813,6.824l-1.288,10.6l13.77,-7.952l0,41.194l13.334,0l0,-55.05l-20.523,11.85c0.597,-4.971 3.039,-9.541 6.84,-12.8l-10.987,0c4.135,-5.523 10.849,-8.527 17.723,-7.928l-14.909,-8.608c5.783,-2.476 12.41,-2.078 17.856,1.072c2.77,1.6 5.013,3.76 6.666,6.259c1.706,-2.575 3.989,-4.718 6.667,-6.259c5.448,-3.151 12.076,-3.548 17.861,-1.072l-14.914,8.608c6.873,-0.6 13.588,2.404 17.722,7.928l-10.986,0c3.803,3.258 6.247,7.828 6.845,12.8l0,-0.002Zm-49.861,43.202l0,-26.666l-16,0l0,26.666l16,0Zm-29.334,-21.333c0,2.926 -2.407,5.333 -5.333,5.333c-2.926,0 -5.333,-2.407 -5.333,-5.333c0,-2.926 2.407,-5.333 5.333,-5.333c2.926,0 5.333,2.407 5.333,5.333Z" style="fill:#667eea;"/></svg>