<svg viewBox="0 0 494 86" xmlns="http://www.w3.org/2000/svg" fill-rule="evenodd" clip-rule="evenodd" stroke-linejoin="round" stroke-miterlimit="2"><path fill="#667eea" fill-rule="nonzero" d="M381.487 66.952h9.587v9.394h-9.587zM399.311 74.658h9.303V45.595c2.059-.808 4.474-1.909 6.817-1.909 3.906 0 5.184 1.542 5.184 4.991v25.981h9.374V47.136c0-.514 0-.954-.071-1.468 2.415-1.028 4.616-1.982 6.889-1.982 3.834 0 5.184 1.542 5.184 4.991v25.981h9.303V46.255c0-7.413-3.764-10.348-10.155-10.348-4.261 0-8.38 1.614-12.073 4.256h-.355c-1.775-2.935-4.758-4.256-8.877-4.256-4.403 0-8.166 1.835-11.22 4.256h-.355v-3.522h-8.948v38.017zM475.865 75.319c6.391 0 10.723-1.762 13.279-3.523v-6.312c-3.124 1.395-6.604 2.495-11.149 2.495-6.675 0-10.51-2.421-11.149-9.761h23.577v-3.523c0-12.183-4.687-18.715-15.837-18.715-9.942 0-17.256 6.605-17.256 19.156v.954c0 12.183 6.178 19.229 18.535 19.229zm-1.492-32.513c4.545 0 6.889 2.495 6.889 9.174h-14.416c.497-7.193 4.19-9.174 7.527-9.174z"/><path d="M160.821 75.103c4.611 0 7.732-1.54 9.364-3.739h.425l.71 3.079h7.589V47.245c0-8.211-5.036-11.437-13.69-11.437-5.107 0-9.221.734-12.839 2.053v6.745c2.412-.733 5.675-1.173 9.293-1.173 6.029 0 8.015 1.099 8.015 5.791v2.566l-8.086 1.026c-7.448 1.1-12.272 4.326-12.272 11.51 0 7.331 4.753 10.777 11.491 10.777zm2.909-6.525c-3.051 0-5.249-1.466-5.249-4.985s1.702-4.839 5.178-5.205l6.029-.66v8.797c-1.135 1.173-3.618 2.053-5.958 2.053zM187.209 20.853h9.363v53.589h-9.363zM214.376 75.103c4.611 0 7.732-1.54 9.364-3.739h.425l.709 3.079h7.59V47.245c0-8.211-5.036-11.437-13.69-11.437-5.107 0-9.221.734-12.839 2.053v6.745c2.412-.733 5.675-1.173 9.292-1.173 6.03 0 8.016 1.099 8.016 5.791v2.566l-8.086 1.026c-7.448 1.1-12.272 4.326-12.272 11.51 0 7.331 4.753 10.777 11.491 10.777zm2.909-6.525c-3.051 0-5.25-1.466-5.25-4.985s1.703-4.839 5.179-5.205l6.029-.66v8.797c-1.135 1.173-3.618 2.053-5.958 2.053zM240.48 74.443h9.363v-53.59h-9.363v53.59zm22.131 0h10.073c-5.249-8.138-7.874-12.17-13.052-20.307l12.201-17.594h-9.506c-4.965 7.257-7.519 10.849-12.342 18.254 4.894 7.917 7.448 11.729 12.626 19.647zM286.303 75.103c4.611 0 7.732-1.54 9.363-3.739h.426l.709 3.079h7.59V47.245c0-8.211-5.036-11.437-13.69-11.437-5.107 0-9.221.734-12.839 2.053v6.745c2.412-.733 5.675-1.173 9.292-1.173 6.03 0 8.016 1.099 8.016 5.791v2.566l-8.087 1.026c-7.448 1.1-12.271 4.326-12.271 11.51 0 7.331 4.752 10.777 11.491 10.777zm2.908-6.525c-3.05 0-5.249-1.466-5.249-4.985s1.703-4.839 5.178-5.205l6.03-.66v8.797c-1.135 1.173-3.618 2.053-5.959 2.053zM310.704 74.443h28.657v-7.185h-17.662v-.293l17.946-23.972v-6.525h-28.161v7.111h16.812v.22l-17.592 23.753v6.891zM355.605 75.103c4.611 0 7.732-1.54 9.363-3.739h.426l.709 3.079h7.59V47.245c0-8.211-5.036-11.437-13.69-11.437-5.107 0-9.221.734-12.839 2.053v6.745c2.412-.733 5.675-1.173 9.292-1.173 6.03 0 8.016 1.099 8.016 5.791v2.566l-8.086 1.026c-7.449 1.1-12.272 4.326-12.272 11.51 0 7.331 4.753 10.777 11.491 10.777zm2.909-6.525c-3.051 0-5.25-1.466-5.25-4.985s1.703-4.839 5.179-5.205l6.029-.66v8.797c-1.135 1.173-3.618 2.053-5.958 2.053z" fill="#2d3748" fill-rule="nonzero"/><path d="M117.096 33.611L96.568 21.76v55.053h24v5.334H3.235v-5.334h10.666v-33.92L3.96 45.381l-1.293-5.173 56.24-14.061h8.325a25.45 25.45 0 00-1.813 6.824l-1.288 10.6 13.77-7.952v41.194h13.334v-55.05l-20.523 11.85a20.008 20.008 0 016.84-12.8H66.565a19.993 19.993 0 0117.723-7.928L69.379 4.277a19.982 19.982 0 0117.856 1.072c2.77 1.6 5.013 3.76 6.666 6.259a19.908 19.908 0 016.667-6.259 19.989 19.989 0 0117.861-1.072l-14.914 8.608a19.986 19.986 0 0117.722 7.928h-10.986a20.005 20.005 0 016.845 12.8v-.002zM67.235 76.813V50.147h-16v26.666h16zM37.901 55.48c0 2.926-2.407 5.333-5.333 5.333s-5.333-2.407-5.333-5.333 2.407-5.333 5.333-5.333 5.333 2.407 5.333 5.333z" fill="#667eea"/></svg>